Coordinates
version=1
nRows=16
nColumns=21
inDegrees=yes

Units are S.I. units (second, meters, Newtons, ...)
If the header above contains a line with 'inDegrees', this indicates whether rotational values are in degrees (yes) or radians (no).

endheader
time	sternoclavicular_r2	sternoclavicular_r3	unrotscap_r3	unrotscap_r2	acromioclavicular_r2	acromioclavicular_r3	acromioclavicular_r1	unrothum_r1	unrothum_r3	unrothum_r2	elv_angle	shoulder_elev	shoulder1_r2	shoulder_rot	elbow_flexion	pro_sup	deviation	flexion	wrist_hand_r1	wrist_hand_r3
      2.01005025	    -35.35256478	     14.97367789	    -14.97367789	     35.35256478	     -7.15817524	     57.84985437	     26.00311141	    -26.00311141	    -57.84985437	      7.15817524	    116.52559562	    146.08465102	   -116.52559562	    -84.32452032	      0.03809475	      0.00000000	      0.00000000	     -0.00000000	     -0.00000000	      0.00000000
      2.03015075	    -35.21320075	     14.91464986	    -14.91464986	     35.21320075	     -7.12995686	     57.62180334	     25.90060403	    -25.90060403	    -57.62180334	      7.12995686	    116.46292038	    145.50876787	   -116.46292038	    -84.29485280	      0.03900652	      0.00000000	      0.00000000	     -0.00000000	     -0.00000000	      0.00000000
      2.05025126	    -35.07035847	     14.85414862	    -14.85414862	     35.07035847	     -7.10103420	     57.38806061	     25.79553829	    -25.79553829	    -57.38806061	      7.10103420	    116.40079621	    144.91851185	   -116.40079621	    -84.26201365	      0.03997202	      0.00000000	      0.00000000	     -0.00000000	     -0.00000000	      0.00000000
      2.07035176	    -34.92399893	     14.79215762	    -14.79215762	     34.92399893	     -7.07139937	     57.14856234	     25.68788546	    -25.68788546	    -57.14856234	      7.07139937	    116.33929090	    144.31372171	   -116.33929090	    -84.22582076	      0.04099575	      0.00000000	      0.00000000	     -0.00000000	     -0.00000000	      0.00000000
      2.09045226	    -34.77408742	     14.72866218	    -14.72866218	     34.77408742	     -7.04104534	     56.90325173	     25.57762003	    -25.57762003	    -56.90325173	      7.04104534	    116.27847475	    143.69425404	   -116.27847475	    -84.18608343	      0.04208271	      0.00000000	      0.00000000	     -0.00000000	     -0.00000000	      0.00000000
      2.11055276	    -34.62059438	     14.66364978	    -14.66364978	     34.62059438	     -7.00996612	     56.65208042	     25.46472026	    -25.46472026	    -56.65208042	      7.00996612	    116.21842215	    143.05998671	   -116.21842215	    -84.14258276	      0.04323853	      0.00000000	      0.00000000	     -0.00000000	     -0.00000000	      0.00000000
      2.13065327	    -34.46349642	     14.59711049	    -14.59711049	     34.46349642	     -6.97815698	     56.39501013	     25.34916893	    -25.34916893	    -56.39501013	      6.97815698	    116.15921169	    142.41082304	   -116.15921169	    -84.09504830	      0.04446951	      0.00000000	      0.00000000	     -0.00000000	     -0.00000000	      0.00000000
      2.15075377	    -34.30264167	     14.52898002	    -14.52898002	     34.30264167	     -6.94558717	     56.13179235	     25.23085435	    -25.23085435	    -56.13179235	      6.94558717	    116.12628264	    141.74613549	   -116.12628264	    -83.86905283	      0.04605113	      0.00000000	      0.00000000	     -0.00000000	     -0.00000000	      0.00000000
      2.17085427	    -34.13803753	     14.45926147	    -14.45926147	     34.13803753	     -6.91225818	     55.86243918	     25.10978195	    -25.10978195	    -55.86243918	      6.91225818	    116.08992650	    141.06595462	   -116.08992650	    -83.66393922	      0.04738356	      0.00000000	      0.00000000	     -0.00000000	     -0.00000000	      0.00000000
      2.19095477	    -33.96979613	     14.38800235	    -14.38800235	     33.96979613	     -6.87819272	     55.58713410	     24.98603421	    -24.98603421	    -55.58713410	      6.87819272	    116.05130260	    140.37074377	   -116.05130260	    -83.47393333	      0.04883413	      0.00000000	      0.00000000	     -0.00000000	     -0.00000000	      0.00000000
      2.21105528	    -33.79792154	     14.31520439	    -14.31520439	     33.79792154	     -6.84339161	     55.30588378	     24.85961413	    -24.85961413	    -55.30588378	      6.84339161	    116.01110886	    139.66051978	   -116.01110886	    -83.29508575	      0.05040017	      0.00000000	      0.00000000	     -0.00000000	     -0.00000000	      0.00000000
      2.23115578	    -33.62242271	     14.24087137	    -14.24087137	     33.62242271	     -6.80785667	     55.01870287	     24.73052829	    -24.73052829	    -55.01870287	      6.80785667	    115.96984521	    138.93531963	   -115.96984521	    -83.12456158	      0.05207048	      0.00000000	      0.00000000	     -0.00000000	     -0.00000000	      0.00000000
      2.25125628	    -33.44332123	     14.16501243	    -14.16501243	     33.44332123	     -6.77159226	     54.72562669	     24.59879256	    -24.59879256	    -54.72562669	      6.77159226	    115.92790991	    138.19523252	   -115.92790991	    -82.96029053	      0.05387483	      0.00000000	      0.00000000	     -0.00000000	     -0.00000000	      0.00000000
      2.27135678	    -33.26064462	     14.08763924	    -14.08763924	     33.26064462	     -6.73460396	     54.42670028	     24.46442720	    -24.46442720	    -54.42670028	      6.73460396	    115.88560924	    137.44037220	   -115.88560924	    -82.80066650	      0.05582277	      0.00000000	      0.00000000	     -0.00000000	     -0.00000000	      0.00000000
      2.29145729	    -33.07442999	     14.00876752	    -14.00876752	     33.07442999	     -6.69689929	     54.12198436	     24.32745949	    -24.32745949	    -54.12198436	      6.69689929	    115.84319512	    136.67089198	   -115.84319512	    -82.64440195	      0.05792547	      0.00000000	      0.00000000	     -0.00000000	     -0.00000000	      0.00000000
      2.31155779	    -32.88472456	     13.92841725	    -13.92841725	     32.88472456	     -6.65848780	     53.81155621	     24.18792417	    -24.18792417	    -53.81155621	      6.65848780	    115.80088095	    135.88698700	   -115.80088095	    -82.49043112	      0.06019560	      0.00000000	      0.00000000	     -0.00000000	     -0.00000000	      0.00000000
